<svg width="100" height="100" viewBox="0 0 100 100" fill="none" xmlns="http://www.w3.org/2000/svg">
<rect x="1" y="1" width="98" height="98" rx="49" fill="white" fill-opacity="0.1" stroke="#F16625" stroke-width="2"/>
<mask id="mask0_407_370" style="mask-type:alpha" maskUnits="userSpaceOnUse" x="30" y="30" width="40" height="41">
<rect x="30" y="30.5" width="40" height="40" fill="#D9D9D9"/>
</mask>
<g mask="url(#mask0_407_370)">
<path d="M60.3613 66.3333C61.8057 66.3333 63.0421 65.86 64.0704 64.9133C65.0988 63.9666 65.691 62.7965 65.8471 61.4029C65.7268 61.4584 65.6042 61.507 65.4792 61.5487C65.3542 61.5904 65.2222 61.6112 65.0833 61.6112H63.5142C63.0694 61.6112 62.6921 61.4568 62.3821 61.1479C62.0718 60.839 61.9167 60.4563 61.9167 60V59.25H58.8054V57.6416C58.8054 57.1861 58.9513 56.8125 59.2429 56.5208C59.5346 56.2291 59.9081 56.0833 60.3633 56.0833H61.1667C61.1667 55.9444 61.176 55.817 61.1946 55.7012C61.2129 55.5857 61.2499 55.4723 61.3054 55.3612C61.1482 55.3334 60.9932 55.3126 60.8404 55.2987C60.6876 55.2848 60.5314 55.2779 60.3717 55.2779C58.8275 55.2779 57.5185 55.8148 56.4446 56.8887C55.3704 57.9629 54.8333 59.2684 54.8333 60.8054H57.97C58.8325 60.8054 59.581 61.1179 60.2154 61.7429C60.8496 62.3679 61.1667 63.1107 61.1667 63.9712V64.7533H58.8054V66.0833C59.0649 66.1666 59.3176 66.2291 59.5638 66.2708C59.8101 66.3125 60.076 66.3333 60.3613 66.3333ZM37.7779 65.5C37.014 65.5 36.36 65.228 35.8158 64.6841C35.2719 64.14 35 63.4859 35 62.722V38.2779C35 37.514 35.2719 36.86 35.8158 36.3158C36.36 35.7719 37.014 35.5 37.7779 35.5H45.8054C46.0185 34.5186 46.5163 33.7176 47.2988 33.097C48.081 32.4768 48.9814 32.1666 50 32.1666C51.0186 32.1666 51.919 32.4768 52.7013 33.097C53.4838 33.7176 53.9815 34.5186 54.1946 35.5H62.2221C62.986 35.5 63.64 35.7719 64.1842 36.3158C64.7281 36.86 65 37.514 65 38.2779V48.7362C65 49.1295 64.8664 49.4594 64.5992 49.7258C64.3322 49.9919 64.0013 50.125 63.6063 50.125C63.2113 50.125 62.8818 49.9919 62.6179 49.7258C62.354 49.4594 62.2221 49.1295 62.2221 48.7362V38.2779H37.7779V62.722H48.25C48.6436 62.722 48.9735 62.8557 49.2396 63.1229C49.5057 63.3901 49.6388 63.7211 49.6388 64.1158C49.6388 64.5108 49.5057 64.8402 49.2396 65.1041C48.9735 65.368 48.6436 65.5 48.25 65.5H37.7779ZM37.7779 62.722V38.2779V50.2083V50.0554V62.722ZM43.0554 58.8333H49.1113C49.5046 58.8333 49.8344 58.6997 50.1008 58.4325C50.3669 58.1655 50.5 57.8345 50.5 57.4395C50.5 57.0445 50.3669 56.7151 50.1008 56.4512C49.8344 56.1873 49.5046 56.0554 49.1113 56.0554H43.0554C42.6621 56.0554 42.3322 56.189 42.0658 56.4562C41.7997 56.7234 41.6667 57.0544 41.6667 57.4491C41.6667 57.8441 41.7997 58.1736 42.0658 58.4375C42.3322 58.7013 42.6621 58.8333 43.0554 58.8333ZM43.0554 51.8887H54.7225C55.1158 51.8887 55.4457 51.7552 55.7121 51.4883C55.9782 51.2211 56.1113 50.89 56.1113 50.495C56.1113 50.1002 55.9782 49.7709 55.7121 49.507C55.4457 49.2432 55.1158 49.1112 54.7225 49.1112H43.0554C42.6621 49.1112 42.3322 49.2447 42.0658 49.5116C41.7997 49.7788 41.6667 50.11 41.6667 50.505C41.6667 50.8997 41.7997 51.229 42.0658 51.4929C42.3322 51.7568 42.6621 51.8887 43.0554 51.8887ZM43.0554 44.9445H56.9446C57.3379 44.9445 57.6678 44.8109 57.9342 44.5437C58.2003 44.2765 58.3333 43.9455 58.3333 43.5508C58.3333 43.1558 58.2003 42.8263 57.9342 42.5625C57.6678 42.2986 57.3379 42.1666 56.9446 42.1666H43.0554C42.6621 42.1666 42.3322 42.3002 42.0658 42.5675C41.7997 42.8344 41.6667 43.1654 41.6667 43.5604C41.6667 43.9554 41.7997 44.2848 42.0658 44.5487C42.3322 44.8126 42.6621 44.9445 43.0554 44.9445ZM50.9792 36.9791C51.2522 36.7061 51.3888 36.3797 51.3888 36C51.3888 35.6202 51.2522 35.2938 50.9792 35.0208C50.7061 34.7477 50.3797 34.6112 50 34.6112C49.6203 34.6112 49.2939 34.7477 49.0208 35.0208C48.7478 35.2938 48.6113 35.6202 48.6113 36C48.6113 36.3797 48.7478 36.7061 49.0208 36.9791C49.2939 37.2522 49.6203 37.3887 50 37.3887C50.3797 37.3887 50.7061 37.2522 50.9792 36.9791ZM60.3471 68.8054C58.1435 68.8054 56.2615 68.0207 54.7013 66.4512C53.1413 64.8818 52.3613 63.0091 52.3613 60.8333C52.3613 58.6122 53.1413 56.719 54.7013 55.1537C56.2613 53.5882 58.1479 52.8054 60.3613 52.8054C62.5557 52.8054 64.4376 53.5882 66.0071 55.1537C67.5765 56.719 68.3613 58.6122 68.3613 60.8333C68.3613 63.0091 67.5765 64.8818 66.0071 66.4512C64.4376 68.0207 62.551 68.8054 60.3471 68.8054Z" fill="#1C1B1F"/>
<path d="M60.3613 66.3333C61.8057 66.3333 63.0421 65.86 64.0704 64.9133C65.0988 63.9666 65.691 62.7965 65.8471 61.4029C65.7268 61.4584 65.6042 61.507 65.4792 61.5487C65.3542 61.5904 65.2222 61.6112 65.0833 61.6112H63.5142C63.0694 61.6112 62.6921 61.4568 62.3821 61.1479C62.0718 60.839 61.9167 60.4563 61.9167 60V59.25H58.8054V57.6416C58.8054 57.1861 58.9513 56.8125 59.2429 56.5208C59.5346 56.2291 59.9081 56.0833 60.3633 56.0833H61.1667C61.1667 55.9444 61.176 55.817 61.1946 55.7012C61.2129 55.5857 61.2499 55.4723 61.3054 55.3612C61.1482 55.3334 60.9932 55.3126 60.8404 55.2987C60.6876 55.2848 60.5314 55.2779 60.3717 55.2779C58.8275 55.2779 57.5185 55.8148 56.4446 56.8887C55.3704 57.9629 54.8333 59.2684 54.8333 60.8054H57.97C58.8325 60.8054 59.581 61.1179 60.2154 61.7429C60.8496 62.3679 61.1667 63.1107 61.1667 63.9712V64.7533H58.8054V66.0833C59.0649 66.1666 59.3176 66.2291 59.5638 66.2708C59.8101 66.3125 60.076 66.3333 60.3613 66.3333ZM37.7779 65.5C37.014 65.5 36.36 65.228 35.8158 64.6841C35.2719 64.14 35 63.4859 35 62.722V38.2779C35 37.514 35.2719 36.86 35.8158 36.3158C36.36 35.7719 37.014 35.5 37.7779 35.5H45.8054C46.0185 34.5186 46.5163 33.7176 47.2988 33.097C48.081 32.4768 48.9814 32.1666 50 32.1666C51.0186 32.1666 51.919 32.4768 52.7013 33.097C53.4838 33.7176 53.9815 34.5186 54.1946 35.5H62.2221C62.986 35.5 63.64 35.7719 64.1842 36.3158C64.7281 36.86 65 37.514 65 38.2779V48.7362C65 49.1295 64.8664 49.4594 64.5992 49.7258C64.3322 49.9919 64.0013 50.125 63.6063 50.125C63.2113 50.125 62.8818 49.9919 62.6179 49.7258C62.354 49.4594 62.2221 49.1295 62.2221 48.7362V38.2779H37.7779V62.722H48.25C48.6436 62.722 48.9735 62.8557 49.2396 63.1229C49.5057 63.3901 49.6388 63.7211 49.6388 64.1158C49.6388 64.5108 49.5057 64.8402 49.2396 65.1041C48.9735 65.368 48.6436 65.5 48.25 65.5H37.7779ZM37.7779 62.722V38.2779V50.2083V50.0554V62.722ZM43.0554 58.8333H49.1113C49.5046 58.8333 49.8344 58.6997 50.1008 58.4325C50.3669 58.1655 50.5 57.8345 50.5 57.4395C50.5 57.0445 50.3669 56.7151 50.1008 56.4512C49.8344 56.1873 49.5046 56.0554 49.1113 56.0554H43.0554C42.6621 56.0554 42.3322 56.189 42.0658 56.4562C41.7997 56.7234 41.6667 57.0544 41.6667 57.4491C41.6667 57.8441 41.7997 58.1736 42.0658 58.4375C42.3322 58.7013 42.6621 58.8333 43.0554 58.8333ZM43.0554 51.8887H54.7225C55.1158 51.8887 55.4457 51.7552 55.7121 51.4883C55.9782 51.2211 56.1113 50.89 56.1113 50.495C56.1113 50.1002 55.9782 49.7709 55.7121 49.507C55.4457 49.2432 55.1158 49.1112 54.7225 49.1112H43.0554C42.6621 49.1112 42.3322 49.2447 42.0658 49.5116C41.7997 49.7788 41.6667 50.11 41.6667 50.505C41.6667 50.8997 41.7997 51.229 42.0658 51.4929C42.3322 51.7568 42.6621 51.8887 43.0554 51.8887ZM43.0554 44.9445H56.9446C57.3379 44.9445 57.6678 44.8109 57.9342 44.5437C58.2003 44.2765 58.3333 43.9455 58.3333 43.5508C58.3333 43.1558 58.2003 42.8263 57.9342 42.5625C57.6678 42.2986 57.3379 42.1666 56.9446 42.1666H43.0554C42.6621 42.1666 42.3322 42.3002 42.0658 42.5675C41.7997 42.8344 41.6667 43.1654 41.6667 43.5604C41.6667 43.9554 41.7997 44.2848 42.0658 44.5487C42.3322 44.8126 42.6621 44.9445 43.0554 44.9445ZM50.9792 36.9791C51.2522 36.7061 51.3888 36.3797 51.3888 36C51.3888 35.6202 51.2522 35.2938 50.9792 35.0208C50.7061 34.7477 50.3797 34.6112 50 34.6112C49.6203 34.6112 49.2939 34.7477 49.0208 35.0208C48.7478 35.2938 48.6113 35.6202 48.6113 36C48.6113 36.3797 48.7478 36.7061 49.0208 36.9791C49.2939 37.2522 49.6203 37.3887 50 37.3887C50.3797 37.3887 50.7061 37.2522 50.9792 36.9791ZM60.3471 68.8054C58.1435 68.8054 56.2615 68.0207 54.7013 66.4512C53.1413 64.8818 52.3613 63.0091 52.3613 60.8333C52.3613 58.6122 53.1413 56.719 54.7013 55.1537C56.2613 53.5882 58.1479 52.8054 60.3613 52.8054C62.5557 52.8054 64.4376 53.5882 66.0071 55.1537C67.5765 56.719 68.3613 58.6122 68.3613 60.8333C68.3613 63.0091 67.5765 64.8818 66.0071 66.4512C64.4376 68.0207 62.551 68.8054 60.3471 68.8054Z" fill="url(#paint0_linear_407_370)"/>
</g>
<defs>
<linearGradient id="paint0_linear_407_370" x1="35" y1="50.486" x2="68.3613" y2="50.486" gradientUnits="userSpaceOnUse">
<stop stop-color="#F16625"/>
<stop offset="1" stop-color="#FF9D00"/>
</linearGradient>
</defs>
</svg>
